<svg id="Camada_1" data-name="Camada 1" xmlns="http://www.w3.org/2000/svg" viewBox="0 0 755 779"><defs><style>.cls-1{fill:#203c66;}.cls-2{fill:none;}</style></defs><path class="cls-1" d="M879.67,512.6c0-119.64-55.66-226.28-142.5-295.44l-49,112.37q-34.54-29.25-70.84-44.12t-71.84-14.88q-36.57,0-59.42,17.49t-22.85,44.83q0,27.86,20.11,44.57T561,409.33l9.11,2.53q123.46,33.47,162.45,73.52,26.29,27.38,40,65.65t13.67,84.91q0,118.13-77.51,189.86c-3.87,3.58-7.84,7-11.9,10.31C806.38,770.05,879.67,649.88,879.67,512.6Z" transform="translate(-124.67 -118.53)"/><path class="cls-1" d="M576.54,606.24q-22.66-20.07-102.63-41.39-108.69-29.37-153.7-76.49t-45-129.19q0-106.38,71.16-173.51a234.75,234.75,0,0,1,47.57-34.82C238.2,197.37,124.67,341.72,124.67,512.6A376.41,376.41,0,0,0,241,785.15l88.81-146.62q45.13,51.27,89,76.63t87.51,25.37q40.59,0,66.72-21.82t26.14-55.36Q599.21,626.29,576.54,606.24Z" transform="translate(-124.67 -118.53)"/><path class="cls-2" d="M393.94,150.84a380.09,380.09,0,0,1,185-7.91c-.48-2.84,1-5.84,4.65-5.36,20.83,2.79,41.92,6.39,63,5.14,6.44-.38,6.4,9.62,0,10a202,202,0,0,1-34.67-1.39,376.53,376.53,0,0,1,125.25,65.84l14.17-32.47A376.15,376.15,0,0,0,647.24,135q-55-16.41-116.23-16.43-78.72,0-137.07,32.31" transform="translate(-124.67 -118.53)"/><path class="cls-2" d="M241,785.15,238.65,789q58.74,56,122.3,82.28T502,897.53q119.51,0,194.78-61.42a377.62,377.62,0,0,1-455.82-51" transform="translate(-124.67 -118.53)"/></svg>